<svg xmlns="http://www.w3.org/2000/svg" width="960" height="640" viewBox="0 0 960 640" role="img" aria-label="Home service professional at a modern home">
  <defs>
    <linearGradient id="bg" x1="0" y1="0" x2="1" y2="1"><stop stop-color="#0f766e"/><stop offset=".55" stop-color="#315f72"/><stop offset="1" stop-color="#c45d3c"/></linearGradient>
    <linearGradient id="wall" x1="0" y1="0" x2="0" y2="1"><stop stop-color="#fffdf8"/><stop offset="1" stop-color="#e9f3ef"/></linearGradient>
    <filter id="shadow" x="-20%" y="-20%" width="140%" height="140%"><feDropShadow dx="0" dy="18" stdDeviation="20" flood-color="#172326" flood-opacity=".22"/></filter>
  </defs>
  <rect width="960" height="640" rx="44" fill="url(#bg)"/>
  <path d="M0 454 C180 382 312 512 475 438 C650 358 766 386 960 300 L960 640 L0 640 Z" fill="#fffdf8" opacity=".18"/>
  <g filter="url(#shadow)">
    <rect x="116" y="150" width="470" height="330" rx="28" fill="url(#wall)"/>
    <rect x="162" y="216" width="128" height="104" rx="14" fill="#d8e7e2"/>
    <rect x="320" y="216" width="202" height="18" rx="9" fill="#0f766e" opacity=".18"/>
    <rect x="320" y="254" width="152" height="18" rx="9" fill="#c45d3c" opacity=".2"/>
    <rect x="162" y="356" width="360" height="62" rx="16" fill="#f6c851" opacity=".28"/>
  </g>
  <g filter="url(#shadow)">
    <circle cx="690" cy="216" r="52" fill="#f3c9a6"/>
    <path d="M622 310 C632 258 746 258 760 310 L784 476 L596 476 Z" fill="#fffdf8"/>
    <path d="M640 306 L742 306 L724 476 L658 476 Z" fill="#0f766e"/>
    <rect x="580" y="370" width="230" height="58" rx="18" fill="#172326"/>
    <rect x="756" y="344" width="58" height="156" rx="18" fill="#f3c9a6"/>
    <rect x="610" y="344" width="58" height="156" rx="18" fill="#f3c9a6"/>
  </g>
  <g fill="#fffdf8" opacity=".82">
    <circle cx="804" cy="122" r="10"/><circle cx="840" cy="154" r="6"/><circle cx="126" cy="92" r="7"/>
  </g>
</svg>
